<svg width="143" height="39" viewBox="0 0 143 39" fill="none" xmlns="http://www.w3.org/2000/svg">
<path d="M51.5268 27V15.0851H53.1949L53.3141 16.9438C53.743 16.213 54.299 15.6809 54.9822 15.3472C55.6812 15.0136 56.3961 14.8468 57.1268 14.8468C57.9688 14.8468 58.7632 15.0374 59.5098 15.4187C60.2565 15.8 60.8284 16.3878 61.2256 17.1821C61.4798 16.642 61.8372 16.2051 62.2979 15.8715C62.7586 15.522 63.259 15.2678 63.7992 15.1089C64.3552 14.9342 64.8795 14.8468 65.372 14.8468C66.1345 14.8468 66.8573 15.0057 67.5405 15.3234C68.2395 15.6411 68.8114 16.1336 69.2562 16.8009C69.701 17.4681 69.9234 18.326 69.9234 19.3745V27H68.0171V19.5651C68.0171 18.4848 67.747 17.7064 67.2068 17.2298C66.6667 16.7532 65.9995 16.5149 65.2051 16.5149C64.5856 16.5149 64.0057 16.6658 63.4656 16.9677C62.9254 17.2695 62.4885 17.7143 62.1549 18.3021C61.8372 18.8899 61.6783 19.6128 61.6783 20.4706V27H59.772V19.5651C59.772 18.4848 59.5019 17.7064 58.9617 17.2298C58.4216 16.7532 57.7544 16.5149 56.96 16.5149C56.4358 16.5149 55.8956 16.6579 55.3396 16.9438C54.7995 17.2139 54.3467 17.6508 53.9813 18.2545C53.6159 18.8582 53.4332 19.6525 53.4332 20.6374V27H51.5268ZM80.4386 19.303C80.4386 18.4133 80.2003 17.7302 79.7238 17.2536C79.2472 16.7611 78.572 16.5149 77.6982 16.5149C76.8721 16.5149 76.1731 16.6976 75.6012 17.063C75.0293 17.4125 74.6083 17.9844 74.3382 18.7787L72.7893 17.8255C73.107 16.9359 73.6948 16.221 74.5527 15.6809C75.4106 15.1248 76.475 14.8468 77.7459 14.8468C78.6038 14.8468 79.3822 14.9977 80.0812 15.2996C80.7802 15.5855 81.3283 16.0304 81.7255 16.634C82.1385 17.2218 82.345 17.9844 82.345 18.9217V24.6885C82.345 25.2604 82.6469 25.5464 83.2506 25.5464C83.5524 25.5464 83.8463 25.5067 84.1323 25.4272L84.0369 26.9285C83.7192 27.0874 83.3062 27.1668 82.7978 27.1668C82.3371 27.1668 81.924 27.0794 81.5586 26.9047C81.1933 26.7299 80.9073 26.4678 80.7008 26.1183C80.4943 25.7529 80.391 25.3001 80.391 24.76V24.5217L80.8676 24.5932C80.6769 25.2128 80.3513 25.7211 79.8906 26.1183C79.4299 26.4996 78.9135 26.7855 78.3416 26.9762C77.7697 27.1509 77.2057 27.2383 76.6497 27.2383C75.9507 27.2383 75.2994 27.1191 74.6957 26.8809C74.092 26.6426 73.6074 26.2851 73.2421 25.8085C72.8925 25.316 72.7178 24.7123 72.7178 23.9974C72.7178 23.1078 73.0117 22.377 73.5995 21.8051C74.2032 21.2173 75.0372 20.8201 76.1016 20.6136L80.8199 19.6843V21.257L76.9833 22.0434C76.2049 22.2023 75.625 22.4247 75.2438 22.7106C74.8625 22.9966 74.6718 23.3938 74.6718 23.9021C74.6718 24.3946 74.8625 24.7997 75.2438 25.1174C75.6409 25.4193 76.1969 25.5702 76.9118 25.5702C77.3725 25.5702 77.8094 25.5146 78.2225 25.4034C78.6514 25.2763 79.0327 25.0936 79.3663 24.8553C79.6999 24.6011 79.9621 24.2913 80.1527 23.926C80.3433 23.5447 80.4386 23.0999 80.4386 22.5915V19.303ZM88.1248 15.0851V27H86.2184V15.0851H88.1248ZM90.9606 13.274H89.221L87.1716 10.5336L85.1223 13.274H83.3827L86.0993 9.29447H88.244L90.9606 13.274ZM94.6009 11.7013V23.7115C94.6009 24.2993 94.7677 24.7362 95.1013 25.0221C95.4349 25.3081 95.8638 25.4511 96.3881 25.4511C96.8488 25.4511 97.246 25.3716 97.5796 25.2128C97.9132 25.0539 98.2151 24.8394 98.4851 24.5694L99.1524 26.166C98.787 26.4996 98.3501 26.7617 97.8417 26.9523C97.3492 27.143 96.7773 27.2383 96.126 27.2383C95.5223 27.2383 94.9583 27.135 94.4341 26.9285C93.9098 26.7061 93.4888 26.3645 93.1711 25.9038C92.8692 25.4272 92.7104 24.8077 92.6945 24.0451V12.2255L94.6009 11.7013ZM98.9379 15.0851V16.7294H90.3115V15.0851H98.9379ZM101.013 27V15.0851H102.562L102.824 17.0391C103.158 16.3084 103.642 15.7603 104.278 15.3949C104.929 15.0295 105.715 14.8468 106.637 14.8468C106.843 14.8468 107.066 14.8627 107.304 14.8945C107.558 14.9262 107.773 14.9898 107.948 15.0851L107.614 16.8247C107.439 16.7611 107.249 16.7135 107.042 16.6817C106.835 16.6499 106.542 16.634 106.16 16.634C105.668 16.634 105.167 16.777 104.659 17.063C104.167 17.3489 103.753 17.7858 103.42 18.3736C103.086 18.9455 102.919 19.6763 102.919 20.566V27H101.013ZM114.589 27.2383C113.461 27.2383 112.453 26.9921 111.563 26.4996C110.689 26.0071 110.006 25.3001 109.514 24.3787C109.021 23.4414 108.775 22.3294 108.775 21.0426C108.775 19.7557 109.021 18.6516 109.514 17.7302C110.006 16.7929 110.681 16.078 111.539 15.5855C112.397 15.093 113.374 14.8468 114.47 14.8468C115.582 14.8468 116.527 15.0851 117.306 15.5617C118.1 16.0383 118.704 16.6896 119.117 17.5157C119.53 18.326 119.737 19.2394 119.737 20.2562C119.737 20.5262 119.729 20.7725 119.713 20.9949C119.697 21.2173 119.673 21.4159 119.641 21.5906H110.014V19.8987H118.807L117.83 20.0894C117.83 18.9455 117.512 18.0638 116.877 17.4443C116.257 16.8247 115.439 16.5149 114.422 16.5149C113.644 16.5149 112.969 16.6976 112.397 17.063C111.841 17.4125 111.404 17.9288 111.086 18.6119C110.784 19.2791 110.634 20.0894 110.634 21.0426C110.634 21.9799 110.792 22.7901 111.11 23.4732C111.428 24.1563 111.873 24.6806 112.445 25.046C113.032 25.3955 113.731 25.5702 114.542 25.5702C115.415 25.5702 116.122 25.4034 116.662 25.0698C117.219 24.7362 117.663 24.2834 117.997 23.7115L119.498 24.5932C119.196 25.1333 118.807 25.602 118.331 25.9991C117.87 26.3963 117.322 26.7061 116.686 26.9285C116.067 27.135 115.368 27.2383 114.589 27.2383ZM134.612 27.2383C133.627 27.2383 132.722 26.9921 131.896 26.4996C131.069 26.0071 130.41 25.3001 129.918 24.3787C129.425 23.4414 129.179 22.3294 129.179 21.0426C129.179 19.724 129.441 18.604 129.965 17.6826C130.49 16.7611 131.181 16.0621 132.039 15.5855C132.896 15.093 133.818 14.8468 134.803 14.8468C135.788 14.8468 136.638 15.101 137.353 15.6094C138.083 16.1177 138.568 16.7929 138.806 17.6349L138.568 17.8017V9.60426H140.474V27H138.806L138.639 24.1166L138.902 23.9736C138.79 24.6726 138.52 25.2684 138.091 25.7609C137.678 26.2374 137.162 26.6028 136.542 26.857C135.939 27.1112 135.295 27.2383 134.612 27.2383ZM134.803 25.5702C135.565 25.5702 136.225 25.3796 136.781 24.9983C137.353 24.617 137.789 24.0769 138.091 23.3779C138.409 22.663 138.568 21.8289 138.568 20.8757C138.568 19.9702 138.409 19.1918 138.091 18.5404C137.789 17.8891 137.361 17.3887 136.804 17.0391C136.264 16.6896 135.629 16.5149 134.898 16.5149C133.691 16.5149 132.753 16.9279 132.086 17.754C131.419 18.5801 131.085 19.6763 131.085 21.0426C131.085 22.4088 131.411 23.505 132.062 24.3311C132.714 25.1572 133.627 25.5702 134.803 25.5702Z" fill="black"/>
<path d="M28.6133 7.40026V4.93359H37V38.9736H0.493333L0 4.93359H8.38667V7.40026H4.44L18.7467 27.1336L33.0533 7.40026H28.6133Z" fill="black"/>
<path d="M25.1599 0L18.7466 5.92L25.1599 11.84V0Z" fill="black"/>
<path d="M11.8398 0L18.2532 5.92L11.8398 11.84V0Z" fill="black"/>
<circle cx="18.2534" cy="12.8257" r="1.48" fill="black"/>
<circle cx="18.2534" cy="18.7476" r="1.48" fill="black"/>
</svg>
